<?xml version="1.0" standalone="no"?>
<!DOCTYPE svg PUBLIC "-//W3C//DTD SVG 20010904//EN"
 "http://www.w3.org/TR/2001/REC-SVG-20010904/DTD/svg10.dtd">
<svg version="1.0" xmlns="http://www.w3.org/2000/svg"
 width="260.000000pt" height="260.000000pt" viewBox="0 0 260.000000 260.000000"
 preserveAspectRatio="xMidYMid meet">
<metadata>
Created by potrace 1.11, written by Peter Selinger 2001-2013
</metadata>
<g transform="translate(0.000000,260.000000) scale(0.100000,-0.100000)"
fill="#000000" stroke="none">
<path d="M1723 2368 c1 -9 -15 -13 -50 -14 -36 -1 -50 2 -46 10 4 6 -1 5 -10
-2 -9 -8 -20 -11 -25 -9 -4 3 -14 2 -22 -3 -8 -5 -22 -3 -36 6 -15 10 -24 12
-29 5 -3 -6 -13 -11 -21 -11 -10 0 -12 5 -8 13 6 9 4 9 -7 1 -16 -13 -78 -13
-98 0 -9 6 -12 5 -8 -1 4 -7 -7 -10 -31 -9 -20 1 -40 -2 -44 -8 -9 -14 -52
-15 -60 -2 -5 7 -8 7 -8 -3 0 -11 -3 -11 -15 -1 -8 7 -15 8 -15 3 0 -5 -9 -9
-20 -10 -11 -1 -20 4 -20 10 0 8 -3 8 -8 2 -10 -14 -65 -14 -74 -1 -5 7 -8 6
-8 -3 0 -11 -3 -11 -15 -1 -8 7 -15 8 -15 3 0 -5 -9 -9 -20 -10 -11 -1 -20 4
-20 10 0 8 -3 8 -8 2 -8 -12 -46 -20 -39 -8 3 4 -5 8 -18 8 -13 0 -21 -4 -18
-9 3 -4 -4 -5 -16 -1 -11 3 -21 2 -21 -3 0 -5 -9 -12 -20 -15 -11 -3 -20 0
-20 6 0 8 -3 8 -8 2 -4 -6 -14 -11 -22 -10 -8 0 -30 -16 -48 -35 -39 -42 -27
-31 -162 -164 -61 -60 -110 -112 -110 -116 0 -4 -7 -10 -15 -14 -8 -3 -15 -13
-15 -21 0 -9 -4 -14 -9 -11 -4 3 -17 -2 -27 -10 -10 -9 -13 -12 -6 -9 11 6 11
3 1 -13 -7 -12 -15 -20 -18 -20 -20 2 -31 -4 -28 -14 1 -7 -3 -12 -10 -11 -6
2 -15 -7 -19 -19 -3 -12 -49 -64 -101 -116 l-94 -94 5 -146 c3 -81 7 -241 9
-357 2 -115 8 -220 13 -232 5 -12 8 -76 8 -142 -1 -67 2 -121 7 -121 5 0 9 -6
9 -14 0 -8 9 -18 20 -21 11 -4 18 -11 15 -16 -4 -5 2 -9 12 -9 10 0 46 -30 80
-66 35 -37 63 -63 63 -58 1 5 8 -4 16 -19 8 -15 19 -25 24 -22 6 4 10 1 10 -6
0 -7 3 -10 6 -6 3 3 48 -37 100 -89 51 -52 98 -94 104 -94 5 0 10 -5 10 -12 0
-6 2 -9 5 -6 7 6 115 -100 115 -113 0 -5 4 -9 9 -9 4 0 20 -12 35 -26 16 -16
26 -21 26 -13 0 8 6 5 15 -8 15 -21 55 -22 55 -1 0 5 5 6 10 3 6 -4 8 -11 5
-16 -4 -5 3 -6 17 -1 32 11 81 7 86 -7 5 -15 32 -14 32 2 0 7 3 8 8 2 10 -14
84 -16 75 -2 -4 6 -1 7 8 1 8 -5 25 -10 37 -12 17 -2 22 1 16 10 -5 9 -2 9 10
-1 15 -13 19 -13 27 0 5 8 9 9 9 2 0 -6 8 -10 18 -8 9 2 21 4 25 4 5 1 6 5 3
10 -3 4 9 7 26 5 17 -2 38 2 46 9 13 10 15 9 9 -8 -7 -19 -6 -19 11 1 14 16
23 19 35 12 12 -6 17 -5 17 4 0 9 3 9 10 -2 5 -8 10 -10 10 -4 0 7 11 9 27 6
20 -4 25 -2 21 10 -4 9 0 15 8 15 8 0 14 -3 14 -6 0 -3 20 -5 45 -3 25 2 45 7
45 11 0 4 21 7 48 6 26 0 50 4 53 8 10 13 63 16 71 3 6 -8 8 -7 8 2 0 7 4 11
9 7 6 -3 37 23 71 57 33 35 64 63 68 63 10 1 49 24 40 25 -4 0 5 13 20 28 15
15 30 26 35 24 4 -2 7 2 7 7 0 6 4 10 8 9 5 -2 30 18 57 45 27 26 52 47 57 47
5 0 6 4 3 10 -5 9 9 15 18 8 2 -2 37 31 77 72 41 41 70 69 66 62 -7 -11 -4
-12 13 -3 19 11 25 23 22 44 0 4 3 7 9 7 5 0 10 11 10 24 0 14 7 32 16 40 8 9
13 16 9 16 -3 0 2 15 12 32 9 18 16 36 15 40 -1 5 2 8 8 8 6 0 10 105 10 295
0 246 -3 301 -15 325 -9 17 -12 30 -8 30 5 0 8 66 7 148 l0 148 -77 77 c-42
42 -82 77 -89 77 -6 0 -9 3 -6 6 7 7 -324 340 -334 337 -5 -2 -8 3 -8 10 0 6
-14 23 -30 36 -17 13 -30 30 -30 38 0 8 -4 12 -9 8 -6 -3 -15 4 -21 15 -6 11
-15 18 -20 15 -5 -3 -12 6 -16 20 -5 21 -12 25 -45 25 -25 0 -38 -4 -36 -12z"/>
</g>
</svg>
